<?xml version="1.0" standalone="no"?><!DOCTYPE svg PUBLIC "-//W3C//DTD SVG 1.1//EN" "http://www.w3.org/Graphics/SVG/1.1/DTD/svg11.dtd"><svg t="1619173515206" class="icon" viewBox="0 0 1024 1024" version="1.1" xmlns="http://www.w3.org/2000/svg" p-id="5606" xmlns:xlink="http://www.w3.org/1999/xlink" width="200" height="200"><defs><style type="text/css"></style></defs><path d="M954.304 190.336a15.552 15.552 0 0 1 0 21.952l-300.032 300.032 298.56 298.56a15.616 15.616 0 0 1 0 22.016l-120.96 120.896a15.552 15.552 0 0 1-21.952 0L511.36 655.232 214.272 952.32a15.552 15.552 0 0 1-21.952 0l-120.896-120.896a15.488 15.488 0 0 1 0-21.952l297.152-297.152L69.888 213.76a15.552 15.552 0 0 1 0-21.952l120.896-120.896a15.552 15.552 0 0 1 21.952 0L511.36 369.472l300.096-300.032a15.36 15.36 0 0 1 21.952 0l120.896 120.896z" p-id="5607" fill="#707070"></path></svg>